<?xml version="1.0" encoding="UTF-8" standalone="no"?>
<!DOCTYPE svg PUBLIC "-//W3C//DTD SVG 1.1//EN"
 "http://www.w3.org/Graphics/SVG/1.1/DTD/svg11.dtd">
<!-- Generated by graphviz version 3.0.0 (20220226.1711)
 -->
<!-- Title: G Pages: 1 -->
<svg width="666pt" height="395pt"
 viewBox="0.00 0.00 666.00 395.00" xmlns="http://www.w3.org/2000/svg" xmlns:xlink="http://www.w3.org/1999/xlink">
<g id="graph0" class="graph" transform="scale(1 1) rotate(0) translate(4 391)">
<title>G</title>
<polygon fill="#eeeeee" stroke="transparent" points="-4,4 -4,-391 662,-391 662,4 -4,4"/>
<g id="clust1" class="cluster">
<title>cluster_inputs</title>
<polygon fill="#eeeeee" stroke="black" stroke-dasharray="5,2" points="8,-303 8,-379 650,-379 650,-303 8,-303"/>
<text text-anchor="middle" x="595.5" y="-310.8" font-family="Times,serif" font-size="14.00">Workflow Inputs</text>
</g>
<g id="clust2" class="cluster">
<title>cluster_outputs</title>
<polygon fill="#eeeeee" stroke="black" stroke-dasharray="5,2" points="239,-8 239,-84 472,-84 472,-8 239,-8"/>
<text text-anchor="middle" x="413" y="-15.8" font-family="Times,serif" font-size="14.00">Workflow Outputs</text>
</g>
<!-- run_netsurfp -->
<g id="node1" class="node">
<title>run_netsurfp</title>
<polygon fill="none" stroke="black" stroke-dasharray="5,2" points="323,-258.5 323,-294.5 409,-294.5 409,-258.5 323,-258.5"/>
<text text-anchor="middle" x="366" y="-272.8" font-family="Times,serif" font-size="14.00">run_netsurfp</text>
</g>
<!-- combine_inputs -->
<g id="node2" class="node">
<title>combine_inputs</title>
<polygon fill="none" stroke="black" stroke-dasharray="5,2" points="314,-185.5 314,-221.5 418,-221.5 418,-185.5 314,-185.5"/>
<text text-anchor="middle" x="366" y="-199.8" font-family="Times,serif" font-size="14.00">combine_inputs</text>
</g>
<!-- run_netsurfp&#45;&gt;combine_inputs -->
<g id="edge1" class="edge">
<title>run_netsurfp&#45;&gt;combine_inputs</title>
<path fill="none" stroke="black" d="M360.12,-258.31C359.28,-250.29 359.05,-240.55 359.42,-231.57"/>
<polygon fill="black" stroke="black" points="362.92,-231.75 360.14,-221.53 355.94,-231.25 362.92,-231.75"/>
</g>
<!-- run_netsurfp&#45;&gt;combine_inputs -->
<g id="edge2" class="edge">
<title>run_netsurfp&#45;&gt;combine_inputs</title>
<path fill="none" stroke="black" d="M371.88,-258.31C372.72,-250.29 372.95,-240.55 372.58,-231.57"/>
<polygon fill="black" stroke="black" points="376.06,-231.25 371.86,-221.53 369.08,-231.75 376.06,-231.25"/>
</g>
<!-- pipenn_predict -->
<g id="node4" class="node">
<title>pipenn_predict</title>
<polygon fill="none" stroke="black" stroke-dasharray="5,2" points="317,-112.5 317,-148.5 415,-148.5 415,-112.5 317,-112.5"/>
<text text-anchor="middle" x="366" y="-126.8" font-family="Times,serif" font-size="14.00">pipenn_predict</text>
</g>
<!-- combine_inputs&#45;&gt;pipenn_predict -->
<g id="edge4" class="edge">
<title>combine_inputs&#45;&gt;pipenn_predict</title>
<path fill="none" stroke="black" d="M366,-185.31C366,-177.29 366,-167.55 366,-158.57"/>
<polygon fill="black" stroke="black" points="369.5,-158.53 366,-148.53 362.5,-158.53 369.5,-158.53"/>
</g>
<!-- calculate_length -->
<g id="node3" class="node">
<title>calculate_length</title>
<polygon fill="none" stroke="black" stroke-dasharray="5,2" points="196.5,-258.5 196.5,-294.5 301.5,-294.5 301.5,-258.5 196.5,-258.5"/>
<text text-anchor="middle" x="249" y="-272.8" font-family="Times,serif" font-size="14.00">calculate_length</text>
</g>
<!-- calculate_length&#45;&gt;combine_inputs -->
<g id="edge3" class="edge">
<title>calculate_length&#45;&gt;combine_inputs</title>
<path fill="none" stroke="black" d="M277.02,-258.49C292.54,-249.08 312.02,-237.26 328.8,-227.07"/>
<polygon fill="black" stroke="black" points="331.07,-229.79 337.8,-221.61 327.43,-223.81 331.07,-229.79"/>
</g>
<!-- predictions -->
<g id="node10" class="node">
<title>predictions</title>
<polygon fill="#94ddf4" stroke="black" points="386.5,-39.5 386.5,-75.5 463.5,-75.5 463.5,-39.5 386.5,-39.5"/>
<text text-anchor="middle" x="425" y="-53.8" font-family="Times,serif" font-size="14.00">predictions</text>
</g>
<!-- pipenn_predict&#45;&gt;predictions -->
<g id="edge11" class="edge">
<title>pipenn_predict&#45;&gt;predictions</title>
<path fill="none" stroke="black" d="M380.28,-112.31C387.53,-103.59 396.46,-92.84 404.44,-83.25"/>
<polygon fill="black" stroke="black" points="407.15,-85.46 410.85,-75.53 401.77,-80.98 407.15,-85.46"/>
</g>
<!-- predictions_figures -->
<g id="node11" class="node">
<title>predictions_figures</title>
<polygon fill="#94ddf4" stroke="black" points="247.5,-39.5 247.5,-75.5 368.5,-75.5 368.5,-39.5 247.5,-39.5"/>
<text text-anchor="middle" x="308" y="-53.8" font-family="Times,serif" font-size="14.00">predictions_figures</text>
</g>
<!-- pipenn_predict&#45;&gt;predictions_figures -->
<g id="edge12" class="edge">
<title>pipenn_predict&#45;&gt;predictions_figures</title>
<path fill="none" stroke="black" d="M351.96,-112.31C344.91,-103.68 336.23,-93.06 328.45,-83.53"/>
<polygon fill="black" stroke="black" points="330.95,-81.06 321.91,-75.53 325.53,-85.49 330.95,-81.06"/>
</g>
<!-- avg_prot_length -->
<g id="node5" class="node">
<title>avg_prot_length</title>
<polygon fill="#94ddf4" stroke="black" points="135.5,-334.5 135.5,-370.5 240.5,-370.5 240.5,-334.5 135.5,-334.5"/>
<text text-anchor="middle" x="188" y="-348.8" font-family="Times,serif" font-size="14.00">avg_prot_length</text>
</g>
<!-- avg_prot_length&#45;&gt;calculate_length -->
<g id="edge5" class="edge">
<title>avg_prot_length&#45;&gt;calculate_length</title>
<path fill="none" stroke="black" d="M202.15,-334.34C209.92,-324.9 219.71,-313.03 228.33,-302.57"/>
<polygon fill="black" stroke="black" points="231.27,-304.51 234.93,-294.57 225.87,-300.06 231.27,-304.51"/>
</g>
<!-- fasta_sequence -->
<g id="node6" class="node">
<title>fasta_sequence</title>
<polygon fill="#94ddf4" stroke="black" points="259,-334.5 259,-370.5 357,-370.5 357,-334.5 259,-334.5"/>
<text text-anchor="middle" x="308" y="-348.8" font-family="Times,serif" font-size="14.00">fasta_sequence</text>
</g>
<!-- fasta_sequence&#45;&gt;run_netsurfp -->
<g id="edge7" class="edge">
<title>fasta_sequence&#45;&gt;run_netsurfp</title>
<path fill="none" stroke="black" d="M321.45,-334.34C328.85,-324.9 338.15,-313.03 346.35,-302.57"/>
<polygon fill="black" stroke="black" points="349.21,-304.6 352.62,-294.57 343.7,-300.28 349.21,-304.6"/>
</g>
<!-- fasta_sequence&#45;&gt;calculate_length -->
<g id="edge6" class="edge">
<title>fasta_sequence&#45;&gt;calculate_length</title>
<path fill="none" stroke="black" d="M294.32,-334.34C286.79,-324.9 277.33,-313.03 268.99,-302.57"/>
<polygon fill="black" stroke="black" points="271.58,-300.21 262.61,-294.57 266.11,-304.57 271.58,-300.21"/>
</g>
<!-- std_prot_length -->
<g id="node7" class="node">
<title>std_prot_length</title>
<polygon fill="#94ddf4" stroke="black" points="16.5,-334.5 16.5,-370.5 117.5,-370.5 117.5,-334.5 16.5,-334.5"/>
<text text-anchor="middle" x="67" y="-348.8" font-family="Times,serif" font-size="14.00">std_prot_length</text>
</g>
<!-- std_prot_length&#45;&gt;calculate_length -->
<g id="edge8" class="edge">
<title>std_prot_length&#45;&gt;calculate_length</title>
<path fill="none" stroke="black" d="M83.59,-334.43C94.87,-323.81 110.66,-310.75 127,-303 145.31,-294.31 166.56,-288.57 186.14,-284.78"/>
<polygon fill="black" stroke="black" points="186.98,-288.18 196.2,-282.97 185.74,-281.29 186.98,-288.18"/>
</g>
<!-- netsurfp_seq_database -->
<g id="node8" class="node">
<title>netsurfp_seq_database</title>
<polygon fill="#94ddf4" stroke="black" points="375.5,-334.5 375.5,-370.5 514.5,-370.5 514.5,-334.5 375.5,-334.5"/>
<text text-anchor="middle" x="445" y="-348.8" font-family="Times,serif" font-size="14.00">netsurfp_seq_database</text>
</g>
<!-- netsurfp_seq_database&#45;&gt;run_netsurfp -->
<g id="edge9" class="edge">
<title>netsurfp_seq_database&#45;&gt;run_netsurfp</title>
<path fill="none" stroke="black" d="M426.68,-334.34C416.31,-324.62 403.17,-312.32 391.78,-301.65"/>
<polygon fill="black" stroke="black" points="393.91,-298.85 384.22,-294.57 389.13,-303.96 393.91,-298.85"/>
</g>
<!-- netsurfp_param2 -->
<g id="node9" class="node">
<title>netsurfp_param2</title>
<polygon fill="#94ddf4" stroke="black" points="532.5,-334.5 532.5,-370.5 641.5,-370.5 641.5,-334.5 532.5,-334.5"/>
<text text-anchor="middle" x="587" y="-348.8" font-family="Times,serif" font-size="14.00">netsurfp_param2</text>
</g>
<!-- netsurfp_param2&#45;&gt;run_netsurfp -->
<g id="edge10" class="edge">
<title>netsurfp_param2&#45;&gt;run_netsurfp</title>
<path fill="none" stroke="black" d="M569.81,-334.43C557.93,-323.67 541.23,-310.45 524,-303 491,-288.74 451.01,-282.38 419.51,-279.57"/>
<polygon fill="black" stroke="black" points="419.42,-276.06 409.18,-278.75 418.87,-283.03 419.42,-276.06"/>
</g>
</g>
</svg>
