<?xml version="1.0" encoding="UTF-8" standalone="no"?>
<!DOCTYPE svg PUBLIC "-//W3C//DTD SVG 1.1//EN"
 "http://www.w3.org/Graphics/SVG/1.1/DTD/svg11.dtd">
<!-- Generated by graphviz version 3.0.0 (20220226.1711)
 -->
<!-- Title: G Pages: 1 -->
<svg width="537pt" height="395pt"
 viewBox="0.00 0.00 537.00 395.00" xmlns="http://www.w3.org/2000/svg" xmlns:xlink="http://www.w3.org/1999/xlink">
<g id="graph0" class="graph" transform="scale(1 1) rotate(0) translate(4 391)">
<title>G</title>
<polygon fill="#eeeeee" stroke="transparent" points="-4,4 -4,-391 533,-391 533,4 -4,4"/>
<g id="clust1" class="cluster">
<title>cluster_inputs</title>
<polygon fill="#eeeeee" stroke="black" stroke-dasharray="5,2" points="8,-303 8,-379 521,-379 521,-303 8,-303"/>
<text text-anchor="middle" x="466.5" y="-310.8" font-family="Times,serif" font-size="14.00">Workflow Inputs</text>
</g>
<g id="clust2" class="cluster">
<title>cluster_outputs</title>
<polygon fill="#eeeeee" stroke="black" stroke-dasharray="5,2" points="176,-8 176,-84 409,-84 409,-8 176,-8"/>
<text text-anchor="middle" x="350" y="-15.8" font-family="Times,serif" font-size="14.00">Workflow Outputs</text>
</g>
<!-- run_netsurfp -->
<g id="node1" class="node">
<title>run_netsurfp</title>
<polygon fill="none" stroke="black" stroke-dasharray="5,2" points="260,-258.5 260,-294.5 346,-294.5 346,-258.5 260,-258.5"/>
<text text-anchor="middle" x="303" y="-272.8" font-family="Times,serif" font-size="14.00">run_netsurfp</text>
</g>
<!-- combine_inputs -->
<g id="node2" class="node">
<title>combine_inputs</title>
<polygon fill="none" stroke="black" stroke-dasharray="5,2" points="251,-185.5 251,-221.5 355,-221.5 355,-185.5 251,-185.5"/>
<text text-anchor="middle" x="303" y="-199.8" font-family="Times,serif" font-size="14.00">combine_inputs</text>
</g>
<!-- run_netsurfp&#45;&gt;combine_inputs -->
<g id="edge1" class="edge">
<title>run_netsurfp&#45;&gt;combine_inputs</title>
<path fill="none" stroke="black" d="M297.12,-258.31C296.28,-250.29 296.05,-240.55 296.42,-231.57"/>
<polygon fill="black" stroke="black" points="299.92,-231.75 297.14,-221.53 292.94,-231.25 299.92,-231.75"/>
</g>
<!-- run_netsurfp&#45;&gt;combine_inputs -->
<g id="edge2" class="edge">
<title>run_netsurfp&#45;&gt;combine_inputs</title>
<path fill="none" stroke="black" d="M308.88,-258.31C309.72,-250.29 309.95,-240.55 309.58,-231.57"/>
<polygon fill="black" stroke="black" points="313.06,-231.25 308.86,-221.53 306.08,-231.75 313.06,-231.25"/>
</g>
<!-- pipenn_predict -->
<g id="node4" class="node">
<title>pipenn_predict</title>
<polygon fill="none" stroke="black" stroke-dasharray="5,2" points="254,-112.5 254,-148.5 352,-148.5 352,-112.5 254,-112.5"/>
<text text-anchor="middle" x="303" y="-126.8" font-family="Times,serif" font-size="14.00">pipenn_predict</text>
</g>
<!-- combine_inputs&#45;&gt;pipenn_predict -->
<g id="edge4" class="edge">
<title>combine_inputs&#45;&gt;pipenn_predict</title>
<path fill="none" stroke="black" d="M303,-185.31C303,-177.29 303,-167.55 303,-158.57"/>
<polygon fill="black" stroke="black" points="306.5,-158.53 303,-148.53 299.5,-158.53 306.5,-158.53"/>
</g>
<!-- calculate_length -->
<g id="node3" class="node">
<title>calculate_length</title>
<polygon fill="none" stroke="black" stroke-dasharray="5,2" points="109.5,-258.5 109.5,-294.5 214.5,-294.5 214.5,-258.5 109.5,-258.5"/>
<text text-anchor="middle" x="162" y="-272.8" font-family="Times,serif" font-size="14.00">calculate_length</text>
</g>
<!-- calculate_length&#45;&gt;combine_inputs -->
<g id="edge3" class="edge">
<title>calculate_length&#45;&gt;combine_inputs</title>
<path fill="none" stroke="black" d="M195.77,-258.49C214.99,-248.82 239.26,-236.6 259.85,-226.23"/>
<polygon fill="black" stroke="black" points="261.66,-229.24 269.01,-221.61 258.51,-222.99 261.66,-229.24"/>
</g>
<!-- predictions -->
<g id="node10" class="node">
<title>predictions</title>
<polygon fill="#94ddf4" stroke="black" points="323.5,-39.5 323.5,-75.5 400.5,-75.5 400.5,-39.5 323.5,-39.5"/>
<text text-anchor="middle" x="362" y="-53.8" font-family="Times,serif" font-size="14.00">predictions</text>
</g>
<!-- pipenn_predict&#45;&gt;predictions -->
<g id="edge11" class="edge">
<title>pipenn_predict&#45;&gt;predictions</title>
<path fill="none" stroke="black" d="M317.28,-112.31C324.53,-103.59 333.46,-92.84 341.44,-83.25"/>
<polygon fill="black" stroke="black" points="344.15,-85.46 347.85,-75.53 338.77,-80.98 344.15,-85.46"/>
</g>
<!-- predictions_figures -->
<g id="node11" class="node">
<title>predictions_figures</title>
<polygon fill="#94ddf4" stroke="black" points="184.5,-39.5 184.5,-75.5 305.5,-75.5 305.5,-39.5 184.5,-39.5"/>
<text text-anchor="middle" x="245" y="-53.8" font-family="Times,serif" font-size="14.00">predictions_figures</text>
</g>
<!-- pipenn_predict&#45;&gt;predictions_figures -->
<g id="edge12" class="edge">
<title>pipenn_predict&#45;&gt;predictions_figures</title>
<path fill="none" stroke="black" d="M288.96,-112.31C281.91,-103.68 273.23,-93.06 265.45,-83.53"/>
<polygon fill="black" stroke="black" points="267.95,-81.06 258.91,-75.53 262.53,-85.49 267.95,-81.06"/>
</g>
<!-- h2 -->
<g id="node5" class="node">
<title>h2</title>
<polygon fill="#94ddf4" stroke="black" points="88,-334.5 88,-370.5 142,-370.5 142,-334.5 88,-334.5"/>
<text text-anchor="middle" x="115" y="-348.8" font-family="Times,serif" font-size="14.00">h2</text>
</g>
<!-- h2&#45;&gt;calculate_length -->
<g id="edge5" class="edge">
<title>h2&#45;&gt;calculate_length</title>
<path fill="none" stroke="black" d="M125.9,-334.34C131.77,-325.09 139.14,-313.5 145.68,-303.2"/>
<polygon fill="black" stroke="black" points="148.75,-304.89 151.16,-294.57 142.84,-301.13 148.75,-304.89"/>
</g>
<!-- fasta_sequence -->
<g id="node6" class="node">
<title>fasta_sequence</title>
<polygon fill="#94ddf4" stroke="black" points="160,-334.5 160,-370.5 258,-370.5 258,-334.5 160,-334.5"/>
<text text-anchor="middle" x="209" y="-348.8" font-family="Times,serif" font-size="14.00">fasta_sequence</text>
</g>
<!-- fasta_sequence&#45;&gt;run_netsurfp -->
<g id="edge7" class="edge">
<title>fasta_sequence&#45;&gt;run_netsurfp</title>
<path fill="none" stroke="black" d="M229.24,-334.37C240.52,-324.95 254.89,-313.15 268,-303 269,-302.22 270.03,-301.44 271.06,-300.65"/>
<polygon fill="black" stroke="black" points="273.23,-303.4 279.14,-294.6 269.04,-297.79 273.23,-303.4"/>
</g>
<!-- fasta_sequence&#45;&gt;calculate_length -->
<g id="edge6" class="edge">
<title>fasta_sequence&#45;&gt;calculate_length</title>
<path fill="none" stroke="black" d="M198.1,-334.34C192.23,-325.09 184.86,-313.5 178.32,-303.2"/>
<polygon fill="black" stroke="black" points="181.16,-301.13 172.84,-294.57 175.25,-304.89 181.16,-301.13"/>
</g>
<!-- h1 -->
<g id="node7" class="node">
<title>h1</title>
<polygon fill="#94ddf4" stroke="black" points="16,-334.5 16,-370.5 70,-370.5 70,-334.5 16,-334.5"/>
<text text-anchor="middle" x="43" y="-348.8" font-family="Times,serif" font-size="14.00">h1</text>
</g>
<!-- h1&#45;&gt;calculate_length -->
<g id="edge8" class="edge">
<title>h1&#45;&gt;calculate_length</title>
<path fill="none" stroke="black" d="M51.92,-334.48C58.2,-324.02 67.52,-311.11 79,-303 85.32,-298.53 92.44,-294.83 99.79,-291.77"/>
<polygon fill="black" stroke="black" points="101.06,-295.04 109.18,-288.23 98.58,-288.49 101.06,-295.04"/>
</g>
<!-- netsurfp_param1 -->
<g id="node8" class="node">
<title>netsurfp_param1</title>
<polygon fill="#94ddf4" stroke="black" points="276.5,-334.5 276.5,-370.5 385.5,-370.5 385.5,-334.5 276.5,-334.5"/>
<text text-anchor="middle" x="331" y="-348.8" font-family="Times,serif" font-size="14.00">netsurfp_param1</text>
</g>
<!-- netsurfp_param1&#45;&gt;run_netsurfp -->
<g id="edge9" class="edge">
<title>netsurfp_param1&#45;&gt;run_netsurfp</title>
<path fill="none" stroke="black" d="M324.51,-334.34C321.11,-325.37 316.89,-314.2 313.08,-304.14"/>
<polygon fill="black" stroke="black" points="316.27,-302.68 309.46,-294.57 309.72,-305.16 316.27,-302.68"/>
</g>
<!-- netsurfp_param2 -->
<g id="node9" class="node">
<title>netsurfp_param2</title>
<polygon fill="#94ddf4" stroke="black" points="403.5,-334.5 403.5,-370.5 512.5,-370.5 512.5,-334.5 403.5,-334.5"/>
<text text-anchor="middle" x="458" y="-348.8" font-family="Times,serif" font-size="14.00">netsurfp_param2</text>
</g>
<!-- netsurfp_param2&#45;&gt;run_netsurfp -->
<g id="edge10" class="edge">
<title>netsurfp_param2&#45;&gt;run_netsurfp</title>
<path fill="none" stroke="black" d="M439.72,-334.35C427.79,-323.97 411.42,-311.2 395,-303 382.95,-296.98 369.27,-292.21 356.22,-288.51"/>
<polygon fill="black" stroke="black" points="356.97,-285.08 346.4,-285.88 355.16,-291.85 356.97,-285.08"/>
</g>
</g>
</svg>
